<?xml version="1.0" encoding="utf-8"?>
<!-- Generator: Adobe Illustrator 27.0.0, SVG Export Plug-In . SVG Version: 6.00 Build 0)  -->
<svg version="1.1" id="a27520da-4319-485c-96d7-e776d7397e13"
	 xmlns="http://www.w3.org/2000/svg" xmlns:xlink="http://www.w3.org/1999/xlink" x="0px" y="0px" viewBox="0 0 876.3 704.3"
	 style="enable-background:new 0 0 876.3 704.3;" xml:space="preserve">
<style type="text/css">
	.st0{fill:#2F2E41;}
	.st1{fill:#FFB8B8;}
	.st2{fill:#F2F2F2;}
	.st3{fill:#FFFFFF;}
	.st4{fill:#2C96D4;}
	.st5{fill:#CCCCCC;}
	.st6{opacity:0.1;enable-background:new    ;}
	.st7{fill:#3F3D56;}
	.st8{fill:#FF6584;}
	.st9{fill:#3F3D54;}
	.st10{fill:#A0616A;}
</style>
<path class="st0" d="M505,75.1c7.5,16-8.4,20.5-26.7,29.1s-31.9,17.9-39.4,1.9s-13.6-47.7,12.2-59.9C477.8,33.7,497.5,59.1,505,75.1
	z"/>
<circle class="st1" cx="467.7" cy="81.9" r="24.6"/>
<path class="st0" d="M589.4,190.9c-0.9-1.1-1.7-2.2-2.6-3.3c-1.1-1.4-2.2-2.7-3.4-4c-12.7-14.7-26.3-23.9-41.2-24.9h0l-0.2,0
	l-29.7,29l-10.1,9.8l0.2,0.5l5.4,13.6h95.5C599.1,204.4,594.5,197.5,589.4,190.9z"/>
<path class="st0" d="M441,91.8L441,91.8l8.8-4.1L448.6,75l5.9,10.5l4.2-2l-0.7-7.4l3.4,6.1l31.2-14.7l0,0
	C486.5,54.6,471,49,458,55.1l-4.5,2.1C440.5,63.4,434.9,78.8,441,91.8z"/>
<path class="st2" d="M644.5,537.7H131.7c-9.1,0-16.5-7.4-16.5-16.5V213c0-6.7,5.4-12.1,12.1-12.1h521.5c6.8,0,12.3,5.5,12.3,12.3
	v307.9C661,530.3,653.6,537.6,644.5,537.7z"/>
<path class="st3" d="M147.7,521.2h480.8c8.8,0,16-7.2,16-16V243.6c0-8.8-7.2-16-16-16H147.7c-8.8,0-16,7.2-16,16v261.5
	C131.7,514,138.9,521.2,147.7,521.2z"/>
<path class="st4" d="M660.8,212.1H115v-8.4c0-9.1,7.4-16.5,16.6-16.5h512.7c9.1,0,16.5,7.4,16.6,16.5V212.1z"/>
<circle class="st3" cx="145.1" cy="199.6" r="4.3"/>
<circle class="st3" cx="161.3" cy="199.6" r="4.3"/>
<circle class="st3" cx="177.6" cy="199.6" r="4.3"/>
<path class="st5" d="M403.1,464.4h-43c-5.2,0-9.5-4.3-9.5-9.5v-43c0-5.2,4.3-9.5,9.5-9.5h43c5.2,0,9.5,4.3,9.5,9.5v43
	C412.6,460.2,408.4,464.4,403.1,464.4z M360.1,404.4c-4.1,0-7.5,3.4-7.5,7.5v43c0,4.1,3.4,7.5,7.5,7.5h43c4.1,0,7.5-3.4,7.5-7.5v-43
	c0-4.1-3.4-7.5-7.5-7.5H360.1z"/>
<path class="st5" d="M394.6,452.4h-26c-1.7,0-3-1.3-3-3v-32c0-1.7,1.3-3,3-3h18.8c0.7,0,1.3,0.2,1.9,0.7l7.2,5.8
	c0.7,0.6,1.1,1.4,1.1,2.3v26.2C397.6,451.1,396.3,452.4,394.6,452.4z M368.6,416.4c-0.6,0-1,0.4-1,1v32c0,0.6,0.4,1,1,1h26
	c0.6,0,1-0.4,1-1v-26.2c0-0.3-0.1-0.6-0.4-0.8l-7.2-5.8c-0.2-0.1-0.4-0.2-0.6-0.2H368.6z"/>
<path class="st5" d="M389.6,428.4h-16c-0.6,0-1-0.4-1-1s0.4-1,1-1h16c0.6,0,1,0.4,1,1S390.2,428.4,389.6,428.4z"/>
<path class="st5" d="M389.6,434.4h-16c-0.6,0-1-0.4-1-1s0.4-1,1-1h16c0.6,0,1,0.4,1,1S390.2,434.4,389.6,434.4z"/>
<path class="st5" d="M389.6,440.4h-16c-0.6,0-1-0.4-1-1s0.4-1,1-1h16c0.6,0,1,0.4,1,1S390.2,440.4,389.6,440.4z"/>
<path class="st5" d="M505.1,464.4h-43c-5.2,0-9.5-4.3-9.5-9.5v-43c0-5.2,4.3-9.5,9.5-9.5h43c5.2,0,9.5,4.3,9.5,9.5v43
	C514.6,460.2,510.4,464.4,505.1,464.4z M462.1,404.4c-4.1,0-7.5,3.4-7.5,7.5v43c0,4.1,3.4,7.5,7.5,7.5h43c4.1,0,7.5-3.4,7.5-7.5v-43
	c0-4.1-3.4-7.5-7.5-7.5H462.1z"/>
<path class="st5" d="M497.6,444.4h-28c-1.7,0-3-1.3-3-3v-16c0-1.7,1.3-3,3-3h28c1.7,0,3,1.3,3,3v16
	C500.6,443.1,499.3,444.4,497.6,444.4z M469.6,424.4c-0.6,0-1,0.4-1,1v16c0,0.6,0.4,1,1,1h28c0.6,0,1-0.4,1-1v-16c0-0.6-0.4-1-1-1
	H469.6z"/>
<path class="st5" d="M483.6,436.1c-0.6,0-1.1-0.2-1.6-0.5l-14.9-9.3c-0.5-0.3-0.6-0.9-0.3-1.4c0.3-0.5,0.9-0.6,1.4-0.3l14.9,9.3
	c0.3,0.2,0.7,0.2,1.1,0l14.9-9.3c0.5-0.3,1.1-0.1,1.4,0.3c0.3,0.5,0.1,1.1-0.3,1.4l-14.9,9.3C484.7,435.9,484.2,436.1,483.6,436.1z"
	/>
<path class="st5" d="M301.1,464.4h-43c-5.2,0-9.5-4.3-9.5-9.5v-43c0-5.2,4.3-9.5,9.5-9.5h43c5.2,0,9.5,4.3,9.5,9.5v43
	C310.6,460.2,306.4,464.4,301.1,464.4z M258.1,404.4c-4.1,0-7.5,3.4-7.5,7.5v43c0,4.1,3.4,7.5,7.5,7.5h43c4.1,0,7.5-3.4,7.5-7.5v-43
	c0-4.1-3.4-7.5-7.5-7.5H258.1z"/>
<path class="st5" d="M293.6,444.4h-28c-1.7,0-3-1.3-3-3v-16c0-1.7,1.3-3,3-3h28c1.7,0,3,1.3,3,3v16
	C296.6,443.1,295.3,444.4,293.6,444.4z M265.6,424.4c-0.6,0-1,0.4-1,1v16c0,0.6,0.4,1,1,1h28c0.6,0,1-0.4,1-1v-16c0-0.6-0.4-1-1-1
	H265.6z"/>
<path class="st5" d="M289.2,444.4H269c-1.1,0-2-0.9-2-2c0-0.4,0.1-0.7,0.3-1l6.1-10.5c0.6-1,1.8-1.3,2.7-0.7
	c0.3,0.2,0.6,0.4,0.7,0.7l3.9,6.8l2.3-3.9c0.6-1,1.8-1.3,2.7-0.7c0.3,0.2,0.6,0.4,0.7,0.7l4.4,7.6c0.6,1,0.2,2.2-0.7,2.7
	C289.9,444.3,289.5,444.4,289.2,444.4L289.2,444.4z M289.2,442.4L289.2,442.4l-4.4-7.6l-3.1,5.4c-0.2,0.3-0.5,0.5-0.9,0.5l0,0
	c-0.4,0-0.7-0.2-0.9-0.5l-4.8-8.3l-6.1,10.5H289.2z"/>
<circle class="st5" cx="290.6" cy="428.4" r="2"/>
<polygon class="st1" points="768.8,691 756.6,691 750.7,643.7 768.8,643.7 "/>
<path class="st0" d="M772,702.9l-39.5,0v-0.5c0-8.5,6.9-15.4,15.4-15.4c0,0,0,0,0,0h0l24.1,0L772,702.9z"/>
<polygon class="st1" points="818.8,691 806.6,691 800.7,643.7 818.8,643.7 "/>
<path class="st0" d="M822,702.9l-39.5,0v-0.5c0-8.5,6.9-15.4,15.4-15.4c0,0,0,0,0,0h0l24.1,0L822,702.9z"/>
<path class="st0" d="M815.1,670.5l-11.4-3.5c-1.7-0.5-3-2-3.2-3.8L790,562.9c0-0.3-0.2-0.4-0.5-0.4c-0.3,0-0.5,0.2-0.5,0.4
	l-17.7,97.2c-0.4,2.4-2.8,4.1-5.2,3.6c0,0-0.1,0-0.1,0l-14.5-3c-2.2-0.5-3.7-2.5-3.6-4.7l10.8-159.3l73.1-7.9L821,666.5
	c-0.1,2.4-2.1,4.2-4.5,4.2C816,670.7,815.6,670.6,815.1,670.5z"/>
<circle class="st1" cx="815.1" cy="333.3" r="24.6"/>
<path class="st4" d="M758.6,497.6l15.9-99.9c3.3-20.6,22.7-34.7,43.3-31.4c1.6,0.3,3.1,0.6,4.7,1.1l0,0
	c18.7,5.4,30.2,24.1,26.6,43.3l-16.6,89.2L758.6,497.6z"/>
<path class="st1" d="M821.9,515.4c4.6-3.1,5.9-9.3,2.9-13.9c-0.3-0.5-0.7-1-1.1-1.4l16.4-31.8l-18.5,2l-12.7,29.8
	c-3.8,4.1-3.5,10.5,0.6,14.3C812.8,517.6,818,518,821.9,515.4L821.9,515.4z"/>
<path class="st4" d="M825.4,494.5c-0.9-0.1-1.8-0.5-2.4-1.2l-6.3-5.8c-1.4-1.3-1.8-3.3-1.1-5.1l12.5-29.7l-1.8-58.7
	c1.1-7.9,8.4-13.5,16.3-12.4c7.9,1.1,13.5,8.4,12.4,16.3c0,0,0,0,0,0l3,36.9c0.9,11.2-2.3,22.4-8.9,31.4l-19.6,26.4
	c-0.8,1-1.9,1.7-3.2,1.8C826.1,494.6,825.7,494.6,825.4,494.5z"/>
<path class="st1" d="M673.6,320c1,5.5,6.3,9.1,11.7,8.1c0.6-0.1,1.2-0.3,1.7-0.5l22.8,27.5l5.4-17.8l-22.5-23.4
	c-2.3-5.1-8.3-7.3-13.4-5C675.1,310.8,672.8,315.4,673.6,320z"/>
<path class="st4" d="M691.5,331.4c0.5-0.8,1.2-1.4,2-1.8l7.8-3.5c1.7-0.8,3.8-0.4,5.1,1l22.5,23.1l54.8,21.3
	c6.9,4.1,9.2,13,5.1,19.9c-4.1,6.9-13,9.2-19.9,5.1c0,0,0,0,0,0l-35.2-11.6c-10.7-3.5-19.7-10.8-25.4-20.5L691.5,336
	c-0.6-1.1-0.8-2.4-0.4-3.6C691.2,332,691.4,331.7,691.5,331.4z"/>
<polygon class="st6" points="835,418.5 834,450.5 815.6,482.5 831,446.8 "/>
<path class="st0" d="M812.3,338c-3.2,0.4-6.2-1.6-7-4.7c-0.8-3.5-3.5-6.3-7-7.3c-4.5-1-10,1.1-13.3-2.3c-1.4-1.6-2-3.8-1.6-5.8
	c0.6-3.3,3-5.8,5.6-7.8c5.4-4.2,12-6.7,18.9-7.1c3.5-0.1,7.1,0.1,10.6,0.5c3.7,0.2,7.3,0.9,10.9,2c8.2,3.1,14.2,10.1,16,18.7
	c1.6,8.5-0.6,17.4-6.1,24.1c-3.2,4-7.4,7.2-12.2,9.3c-1.1,0.5-2.4,0.6-3.6,0.2c-3-1.2-2.5-4.8-1.1-7.3c1.4-2.6,3.7-5.1,2.5-8.3
	c-0.6-1.5-1.7-2.7-3.1-3.4C818.8,337.2,815.5,337.6,812.3,338L812.3,338z"/>
<path class="st3" d="M665.4,351.8h-304c-9.1,0-16.5-7.4-16.5-16.5v-65c0-9.1,7.4-16.5,16.5-16.5h304c9.1,0,16.5,7.4,16.5,16.5v65
	C681.9,344.4,674.5,351.8,665.4,351.8z"/>
<path class="st7" d="M665.4,352.3h-304c-9.4,0-17-7.6-17-17v-65c0-9.4,7.6-17,17-17h304c9.4,0,17,7.6,17,17v65
	C682.4,344.7,674.8,352.3,665.4,352.3z M361.4,255.3c-8.3,0-15,6.7-15,15v65c0,8.3,6.7,15,15,15h304c8.3,0,15-6.7,15-15v-65
	c0-8.3-6.7-15-15-15H361.4z"/>
<path class="st2" d="M628.4,335.8h-230c-9.1,0-16.5-7.4-16.5-16.5v-34c0-9.1,7.4-16.5,16.5-16.5h230c9.1,0,16.5,7.4,16.5,16.5v34
	C644.9,328.4,637.5,335.8,628.4,335.8z"/>
<circle class="st8" cx="447.9" cy="297.8" r="19.7"/>
<path class="st9" d="M614.1,333.8l-27.9-23.4l-27.4-23c-1.5-1.3-3.7-1.2-5.2,0l-27.3,23.1l-6.7,5.6l-10-8.4l-30.5-25.6
	c-1.5-1.3-3.7-1.2-5.2,0l-30.4,25.7l-30.9,26.1c-0.4,0.4-0.5,1-0.1,1.4c0.2,0.2,0.5,0.4,0.8,0.4l63.4-0.1l20.1,0l-0.2,0.2l59.8-0.1
	l57.1-0.1c0.6,0,1-0.4,1-1C614.5,334.3,614.4,334,614.1,333.8z"/>
<path class="st5" d="M875.3,704.3h-192c-0.6,0-1-0.4-1-1s0.4-1,1-1h192c0.6,0,1,0.4,1,1S875.8,704.3,875.3,704.3z"/>
<path class="st1" d="M604.1,174.8c-1.6-2.6-4.2-4.5-7.2-5.1c-0.5-0.1-1.1-0.2-1.7-0.2L519,101.3c-1.5-1.5-3.5-2.5-5.6-2.7
	c-0.4,0-0.8-0.1-1.3,0c-5,0.2-8.9,4.5-8.6,9.5c0.1,2.3,1.1,4.4,2.7,6l29.2,25.4l47.9,41.8c0,0.8,0.2,1.6,0.4,2.3
	c1.2,4.5,5,7.9,9.7,8.4c2.1,0.2,4.2-0.1,6.1-1c1.5-0.7,2.8-1.7,3.9-3c0.1-0.1,0.2-0.2,0.3-0.4C606.3,183.9,606.5,178.8,604.1,174.8
	L604.1,174.8z"/>
<path class="st1" d="M473.7,240.4l-0.7-28.9l-0.6-23.9l-0.4-16.8l-0.8-32.7c-0.5-5-4.9-8.6-9.8-8.2c-2.3,0.2-4.4,1.3-5.9,2.9
	c-0.3,0.3-0.5,0.6-0.8,1c-1.2,1.8-1.8,3.9-1.6,6.1l1.8,47.7l0.9,24l1.1,30.5c-0.3,0.4-0.6,0.9-0.9,1.4c-1.4,2.7-1.7,5.9-0.7,8.8
	c2,5.9,8.4,9.1,14.3,7.1c0.4-0.1,0.8-0.3,1.2-0.5c5.6-2.7,8.1-9.4,5.4-15C475.7,242.6,474.8,241.4,473.7,240.4L473.7,240.4z"/>
<path class="st5" d="M542.3,158.7l-7.1-19.1l-11.4-31c-1.7-4.6-5.3-8.1-10-9.7c-0.2-0.1-0.4-0.1-0.5-0.2c-4.5-1.4-9.3-0.7-13.2,1.8
	l-38.5,24.4c-7.3,4.6-9.7,14.3-5.3,21.8c4.8,8.3,10.1,16.4,15.7,24.2c4.5,6.1,12.9,6.8,14.3,16.8h28.4l28.8-25.8L542.3,158.7z"/>
<circle class="st10" cx="101.2" cy="369.5" r="23.2"/>
<path class="st10" d="M158.1,353.6c0.2,0.2,0.4,0.4,0.7,0.6c4.2,3.9,4.4,10.5,0.4,14.7c-0.3,0.3-0.6,0.6-0.9,0.8
	c-0.3,0.2-0.5,0.4-0.8,0.6l1.6,52.9c0.1,3.6-2.2,6.8-5.5,7.9l-0.1,0l-43,4.6c-4.9,0.5-9.3-3-9.8-7.9c-0.5-4.9,3-9.3,7.9-9.8
	c0.1,0,0.1,0,0.2,0l30.6-2.7l5.3-45.9c-0.3-0.3-0.7-0.6-1-1c-3.7-4.4-3.1-10.9,1.2-14.6C148.7,350.6,154.2,350.5,158.1,353.6
	L158.1,353.6z"/>
<polygon class="st10" points="139.3,692 150.9,692 156.4,647.4 139.3,647.4 "/>
<path class="st0" d="M136.4,688.3l22.8,0h0c8,0,14.5,6.5,14.5,14.5c0,0,0,0,0,0v0.5l-37.3,0L136.4,688.3z"/>
<polygon class="st10" points="24.4,676 34.3,682 61.9,646.4 47.2,637.7 "/>
<path class="st0" d="M23.8,671.3l19.6,11.7l0,0c6.9,4.1,9.1,13,5,19.9c0,0,0,0,0,0l-0.2,0.4l-32-19.1L23.8,671.3z"/>
<path class="st0" d="M153.6,676.3h-13c-2.2,0-4-1.6-4.2-3.8l-13.1-122.7c-0.1-0.8-0.8-1.3-1.6-1.3c-0.5,0.1-0.9,0.4-1.1,0.8
	l-23.6,52.2l-41.7,68c-1.1,1.8-3.4,2.5-5.3,1.7l-16.7-7.3c-2.1-0.9-3.1-3.5-2.2-5.6c0.1-0.2,0.2-0.3,0.2-0.5l38.3-64.2l11.8-54.1
	c-3.7-23.5,12.2-58.3,12.3-58.7l0.1-0.2l43.7-17.1l0.2,0.3c17.2,56.5,27.7,117.3,20,208.6C157.7,674.6,155.8,676.3,153.6,676.3z"/>
<path class="st7" d="M92.2,486.3l-0.2-0.4c-0.1-0.2-9.8-20.7-17.3-42.6c-2.9-8.6-2.1-17.9,2.2-25.9c4.4-8,11.9-13.8,20.8-16l0,0
	c15.7-3.8,31.9,4.6,37.9,19.6c5.9,14.8,4,30.7,2.3,43.2l0,0.2l-0.2,0.1L92.2,486.3z"/>
<path class="st0" d="M129.3,356.5H92.5v-16c8.1-3.2,16-5.9,20.8,0C122.1,340.4,129.3,347.6,129.3,356.5L129.3,356.5z"/>
<path class="st0" d="M90.4,337.6c-22,0-28.2,27.6-28.2,43.1c0,8.7,3.9,11.8,10.1,12.8l2.2-11.6l5.1,12.1c1.7,0,3.6,0,5.4-0.1
	l1.7-3.6l3.9,3.5c15.4,0,27.9,2.3,27.9-13.2C118.6,365.2,113.2,337.6,90.4,337.6z"/>
<path class="st5" d="M193,704.3H1c-0.6,0-1-0.4-1-1s0.4-1,1-1h192c0.6,0,1,0.4,1,1S193.6,704.3,193,704.3z"/>
<path class="st3" d="M196.6,375.3h-43c-5.2,0-9.5-4.3-9.5-9.5v-43c0-5.2,4.3-9.5,9.5-9.5h43c5.2,0,9.5,4.3,9.5,9.5v43
	C206.1,371.1,201.9,375.3,196.6,375.3z"/>
<path class="st7" d="M196.6,375.3h-43c-5.2,0-9.5-4.3-9.5-9.5v-43c0-5.2,4.3-9.5,9.5-9.5h43c5.2,0,9.5,4.3,9.5,9.5v43
	C206.1,371.1,201.9,375.3,196.6,375.3z M153.6,315.3c-4.1,0-7.5,3.4-7.5,7.5v43c0,4.1,3.4,7.5,7.5,7.5h43c4.1,0,7.5-3.4,7.5-7.5v-43
	c0-4.1-3.4-7.5-7.5-7.5H153.6z"/>
<path class="st4" d="M189.1,357.8h-28c-1.7,0-3-1.3-3-3v-21c0-1.7,1.3-3,3-3h7.9c1,0,2,0.5,2.6,1.4l2.2,3.6h15.4c1.7,0,3,1.3,3,3v16
	C192.1,356.5,190.8,357.8,189.1,357.8z"/>
<path class="st10" d="M188.2,368.4c0.1,0.3,0.3,0.5,0.4,0.8c2.3,5.2,0,11.4-5.3,13.7c-0.4,0.2-0.7,0.3-1.1,0.4
	c-0.3,0.1-0.7,0.2-1,0.2L162.1,433c-1.3,3.3-4.6,5.4-8.2,5.1l-0.1,0l-41.4-12.5c-4.7-1.4-7.4-6.4-6-11.1c1.4-4.7,6.4-7.4,11.1-6
	c0.1,0,0.1,0,0.2,0L147,418l22.7-40.2c-0.2-0.4-0.4-0.8-0.5-1.3c-1.7-5.5,1.3-11.3,6.8-13C180.7,362.1,185.8,364.1,188.2,368.4
	L188.2,368.4z"/>
</svg>
